<svg xmlns="http://www.w3.org/2000/svg" width="100%" height="100%" viewBox="0 0 170 170" style="fill: rgb(194, 163, 79);">
    <g id="effect-svg">

        <path d="M 129.00,12.46
           C 173.51,39.57 182.99,99.10 150.08,139.00
             141.44,149.46 133.04,155.32 121.00,161.24
             106.99,168.13 95.28,169.17 80.00,169.00
             69.39,168.87 58.59,165.66 49.00,161.30
             10.04,143.61 -8.80,99.53 4.03,59.00
             14.13,27.08 39.78,7.39 72.00,1.44
             91.19,-1.02 112.36,2.33 129.00,12.46 Z
           M 154.22,117.00
           C 177.08,68.71 142.05,9.64 88.00,9.00
             57.30,8.64 30.35,22.90 16.27,51.00
             4.89,73.70 6.53,103.45 19.81,125.00
             24.08,131.91 30.58,140.49 38.00,144.00
             38.00,144.00 38.00,94.00 38.00,94.00
             38.01,88.22 37.37,85.01 43.00,82.00
             43.00,82.00 43.00,50.00 43.00,50.00
             43.02,46.14 42.95,42.47 45.65,39.34
             48.79,35.70 52.65,36.01 57.00,36.00
             57.00,36.00 113.00,36.00 113.00,36.00
             123.00,36.02 126.85,38.36 127.00,49.00
             127.00,49.00 127.00,82.00 127.00,82.00
             132.27,84.82 131.97,87.49 132.00,93.00
             132.00,93.00 132.00,144.00 132.00,144.00
             141.61,138.84 149.61,126.73 154.22,117.00 Z
           M 50.00,43.00
           C 50.00,43.00 50.00,82.00 50.00,82.00
             50.00,82.00 120.00,82.00 120.00,82.00
             120.00,82.00 120.00,43.00 120.00,43.00
             120.00,43.00 50.00,43.00 50.00,43.00 Z
           M 87.00,46.00
           C 87.50,47.61 87.41,51.15 89.25,50.88
             91.09,50.60 94.71,55.11 93.55,59.98
             91.61,68.15 79.38,67.56 78.58,59.00
             78.20,54.89 81.64,51.17 82.50,50.75
             83.36,50.33 83.67,48.02 84.00,46.00
             83.75,45.56 85.85,43.99 87.00,46.00 Z
           M 64.42,62.73
           C 67.61,63.54 74.08,62.39 75.53,69.02
             77.27,77.02 66.33,81.18 61.74,74.85
             60.76,73.51 60.12,69.62 60.25,65.88
             60.12,64.88 58.62,63.72 58.50,62.88
             57.43,61.27 59.05,60.02 60.38,60.62
             60.38,60.62 64.42,62.73 64.42,62.73 Z
           M 110.86,67.41
           C 110.58,70.58 111.04,72.41 109.26,74.85
             104.67,81.18 93.73,77.02 95.47,69.02
             96.75,63.15 101.27,63.67 105.58,62.94
             108.14,62.51 107.12,62.12 108.88,60.50
             112.25,58.75 113.38,61.82 112.25,63.62
             111.52,65.84 110.99,65.95 110.86,67.41 Z
           M 45.00,88.00
           C 45.00,88.00 45.00,142.00 45.00,142.00
             45.00,143.86 44.88,147.13 45.60,148.79
             47.11,152.27 56.38,155.63 60.00,156.91
             72.04,161.19 95.87,161.48 108.00,157.48
             111.86,156.21 122.82,152.29 124.43,148.67
             125.14,147.08 125.00,143.80 125.00,142.00
             125.00,142.00 125.00,88.00 125.00,88.00
             125.00,88.00 45.00,88.00 45.00,88.00 Z
           M 72.00,103.00
           C 72.00,103.00 107.00,103.00 107.00,103.00
             108.48,103.00 117.23,102.67 114.83,106.46
             113.63,108.35 108.99,108.00 107.00,108.00
             107.00,108.00 63.00,108.00 63.00,108.00
             60.21,107.99 53.04,108.68 55.66,104.00
             59.81,102.23 67.30,103.00 72.00,103.00 Z
           M 61.00,115.00
           C 61.00,115.00 102.00,115.00 102.00,115.00
             107.26,115.00 114.53,113.89 116.55,119.64
             116.55,119.64 54.18,119.27 54.18,119.27
             55.63,115.13 56.85,115.08 61.00,115.00 Z
           M 116.00,127.00
           C 116.00,127.00 116.00,131.00 116.00,131.00
             116.00,131.00 54.00,131.00 54.00,131.00
             54.00,131.00 54.00,127.00 54.00,127.00
             54.00,127.00 116.00,127.00 116.00,127.00 Z
           M 114.98,139.60
           C 115.84,140.66 115.79,141.78 116.00,143.00
             116.00,143.00 54.12,143.25 54.12,143.25
             54.12,143.25 54.00,139.00 54.00,139.00
             61.82,137.10 113.03,137.18 114.98,139.60 Z
           M 75.12,62.12"></path>
    </g>
</svg>